<svg width="174" height="174" viewBox="0 0 174 174" fill="none" xmlns="http://www.w3.org/2000/svg">
<g clip-path="url(#clip0_640_5476)">
<rect width="173.811" height="173.811" rx="39.5026" fill="#FDD35B"/>
<mask id="path-3-outside-1_640_5476" maskUnits="userSpaceOnUse" x="19.2781" y="71.4214" width="136" height="39" fill="black">
<rect fill="white" x="19.2781" y="71.4214" width="136" height="39"/>
<path d="M41.873 78.3626C44.8178 78.3626 47.4835 79.588 49.4133 81.5684C51.3432 83.5488 52.5373 86.2859 52.5373 89.3062C52.5373 89.8448 52.4992 90.3753 52.4263 90.8944C46.4384 90.8944 40.449 90.8944 34.4612 90.8944C34.7656 92.4029 35.4983 93.7519 36.5195 94.7999C37.8896 96.2059 39.7814 97.0749 41.873 97.0749C43.9646 97.0749 45.8565 96.2059 47.2266 94.7999C47.5849 94.4321 47.9069 94.0286 48.1875 93.5941L50.6661 95.4997C50.295 96.0546 49.8748 96.572 49.4133 97.0456C47.4835 99.026 44.8162 100.251 41.873 100.251C38.9283 100.251 36.2626 99.026 34.3327 97.0456C32.4028 95.0652 31.2088 92.3281 31.2088 89.3078C31.2088 86.2859 32.4028 83.5504 34.3327 81.57C36.2626 79.5896 38.9298 78.3626 41.873 78.3626ZM72.8525 78.3626C75.7973 78.3626 78.463 79.588 80.3928 81.5684C82.3227 83.5488 83.5168 86.2859 83.5168 89.3062C83.5168 89.8448 83.4787 90.3753 83.4058 90.8944C77.4179 90.8944 71.4285 90.8944 65.4407 90.8944C65.7451 92.4029 66.4778 93.7519 67.499 94.7999C68.8691 96.2059 70.7625 97.0749 72.8525 97.0749C74.9442 97.0749 76.836 96.2059 78.2061 94.7999C78.5645 94.4321 78.8864 94.0286 79.1686 93.5941L81.6472 95.4997C81.2761 96.0546 80.8559 96.572 80.3944 97.0456C78.4646 99.026 75.7973 100.251 72.8541 100.251C69.9109 100.251 67.2437 99.026 65.3138 97.0456C63.3839 95.0652 62.1898 92.3281 62.1898 89.3078C62.1898 86.2859 63.3839 83.5504 65.3138 81.57C67.2437 79.5896 69.9094 78.3626 72.8525 78.3626ZM80.2644 87.7196C79.9599 86.2111 79.2273 84.862 78.2061 83.8141C76.836 82.4081 74.9442 81.5391 72.8525 81.5391C70.7625 81.5391 68.8691 82.4081 67.499 83.8141C66.4762 84.8637 65.7451 86.2111 65.4407 87.7196H80.2644ZM119.312 78.3626C122.257 78.3626 124.923 79.588 126.853 81.5684C128.782 83.5488 129.977 86.2859 129.977 89.3062V98.572C129.977 101.594 128.782 104.329 126.853 106.31C124.923 108.29 122.255 109.516 119.312 109.516C116.368 109.516 113.702 108.29 111.772 106.31C111.311 105.836 110.89 105.317 110.519 104.762L112.998 102.857C113.278 103.291 113.602 103.696 113.959 104.064C115.329 105.47 117.221 106.339 119.312 106.339C121.402 106.339 123.296 105.47 124.666 104.064C126.036 102.658 126.883 100.717 126.883 98.5704V97.0114L126.853 97.0423C124.923 99.0227 122.255 100.248 119.312 100.248C116.368 100.248 113.702 99.0227 111.772 97.0423C109.842 95.0619 108.648 92.3248 108.648 89.3045C108.648 86.2827 109.842 83.5472 111.772 81.5668C113.702 79.5864 116.369 78.3626 119.312 78.3626ZM124.666 83.8124C123.296 82.4065 121.404 81.5375 119.312 81.5375C117.222 81.5375 115.329 82.4065 113.959 83.8124C112.589 85.2184 111.742 87.1598 111.742 89.3062C111.742 91.4526 112.589 93.3939 113.959 94.7999C115.329 96.2059 117.222 97.0749 119.312 97.0749C121.404 97.0749 123.296 96.2059 124.666 94.7999C126.036 93.3939 126.883 91.4526 126.883 89.3062C126.883 87.1614 126.036 85.2184 124.666 83.8124ZM143.92 78.3626C146.865 78.3626 149.531 79.588 151.46 81.5684C153.39 83.5488 154.584 86.2859 154.584 89.3062C154.584 92.3281 153.39 95.0635 151.46 97.044C149.531 99.0244 146.865 100.25 143.92 100.25C140.975 100.25 138.31 99.0244 136.38 97.044C134.45 95.0635 133.256 92.3264 133.256 89.3062C133.256 86.2843 134.45 83.5488 136.38 81.5684C138.31 79.588 140.977 78.3626 143.92 78.3626ZM149.274 83.8124C147.904 82.4065 146.01 81.5375 143.92 81.5375C141.829 81.5375 139.937 82.4065 138.567 83.8124C137.197 85.2184 136.35 87.1598 136.35 89.3062C136.35 91.4526 137.198 93.3939 138.567 94.7999C139.937 96.2059 141.83 97.0749 143.92 97.0749C146.01 97.0749 147.904 96.2059 149.274 94.7999C150.644 93.3939 151.491 91.4526 151.491 89.3062C151.491 87.1614 150.644 85.2184 149.274 83.8124ZM29.5691 81.5375C27.866 81.5375 26.3167 82.2535 25.1939 83.4056C24.0696 84.5594 23.3719 86.1476 23.3719 87.8953V99.6867H20.2781V87.8953C20.2781 85.2721 21.3231 82.8881 23.0056 81.1616C24.6881 79.435 27.0112 78.3626 29.5675 78.3626L29.5691 81.5375ZM58.9089 72.4214V99.6883H55.8151V72.4214H58.9089ZM102.276 99.6883V87.8969C102.276 86.1492 101.579 84.5594 100.456 83.4072C99.3316 82.2551 97.7839 81.5391 96.0808 81.5391C94.3777 81.5391 92.83 82.2551 91.7057 83.4072C90.5814 84.561 89.8852 86.1492 89.8852 87.8969V99.6883H86.7914V87.8969C86.7914 85.2737 87.8364 82.8898 89.5189 81.1632C91.2014 79.4366 93.5246 78.3643 96.0808 78.3643C98.6371 78.3643 100.96 79.4366 102.643 81.1632C104.325 82.8898 105.37 85.2737 105.37 87.8969V99.6883H102.276ZM49.2849 87.7196C48.9804 86.2111 48.2478 84.862 47.2266 83.8141C45.8565 82.4081 43.9646 81.5391 41.873 81.5391C39.7814 81.5391 37.8896 82.4081 36.5195 83.8141C35.4967 84.8637 34.7656 86.2111 34.4612 87.7196H49.2849Z"/>
</mask>
<path d="M41.873 78.3626C44.8178 78.3626 47.4835 79.588 49.4133 81.5684C51.3432 83.5488 52.5373 86.2859 52.5373 89.3062C52.5373 89.8448 52.4992 90.3753 52.4263 90.8944C46.4384 90.8944 40.449 90.8944 34.4612 90.8944C34.7656 92.4029 35.4983 93.7519 36.5195 94.7999C37.8896 96.2059 39.7814 97.0749 41.873 97.0749C43.9646 97.0749 45.8565 96.2059 47.2266 94.7999C47.5849 94.4321 47.9069 94.0286 48.1875 93.5941L50.6661 95.4997C50.295 96.0546 49.8748 96.572 49.4133 97.0456C47.4835 99.026 44.8162 100.251 41.873 100.251C38.9283 100.251 36.2626 99.026 34.3327 97.0456C32.4028 95.0652 31.2088 92.3281 31.2088 89.3078C31.2088 86.2859 32.4028 83.5504 34.3327 81.57C36.2626 79.5896 38.9298 78.3626 41.873 78.3626ZM72.8525 78.3626C75.7973 78.3626 78.463 79.588 80.3928 81.5684C82.3227 83.5488 83.5168 86.2859 83.5168 89.3062C83.5168 89.8448 83.4787 90.3753 83.4058 90.8944C77.4179 90.8944 71.4285 90.8944 65.4407 90.8944C65.7451 92.4029 66.4778 93.7519 67.499 94.7999C68.8691 96.2059 70.7625 97.0749 72.8525 97.0749C74.9442 97.0749 76.836 96.2059 78.2061 94.7999C78.5645 94.4321 78.8864 94.0286 79.1686 93.5941L81.6472 95.4997C81.2761 96.0546 80.8559 96.572 80.3944 97.0456C78.4646 99.026 75.7973 100.251 72.8541 100.251C69.9109 100.251 67.2437 99.026 65.3138 97.0456C63.3839 95.0652 62.1898 92.3281 62.1898 89.3078C62.1898 86.2859 63.3839 83.5504 65.3138 81.57C67.2437 79.5896 69.9094 78.3626 72.8525 78.3626ZM80.2644 87.7196C79.9599 86.2111 79.2273 84.862 78.2061 83.8141C76.836 82.4081 74.9442 81.5391 72.8525 81.5391C70.7625 81.5391 68.8691 82.4081 67.499 83.8141C66.4762 84.8637 65.7451 86.2111 65.4407 87.7196H80.2644ZM119.312 78.3626C122.257 78.3626 124.923 79.588 126.853 81.5684C128.782 83.5488 129.977 86.2859 129.977 89.3062V98.572C129.977 101.594 128.782 104.329 126.853 106.31C124.923 108.29 122.255 109.516 119.312 109.516C116.368 109.516 113.702 108.29 111.772 106.31C111.311 105.836 110.89 105.317 110.519 104.762L112.998 102.857C113.278 103.291 113.602 103.696 113.959 104.064C115.329 105.47 117.221 106.339 119.312 106.339C121.402 106.339 123.296 105.47 124.666 104.064C126.036 102.658 126.883 100.717 126.883 98.5704V97.0114L126.853 97.0423C124.923 99.0227 122.255 100.248 119.312 100.248C116.368 100.248 113.702 99.0227 111.772 97.0423C109.842 95.0619 108.648 92.3248 108.648 89.3045C108.648 86.2827 109.842 83.5472 111.772 81.5668C113.702 79.5864 116.369 78.3626 119.312 78.3626ZM124.666 83.8124C123.296 82.4065 121.404 81.5375 119.312 81.5375C117.222 81.5375 115.329 82.4065 113.959 83.8124C112.589 85.2184 111.742 87.1598 111.742 89.3062C111.742 91.4526 112.589 93.3939 113.959 94.7999C115.329 96.2059 117.222 97.0749 119.312 97.0749C121.404 97.0749 123.296 96.2059 124.666 94.7999C126.036 93.3939 126.883 91.4526 126.883 89.3062C126.883 87.1614 126.036 85.2184 124.666 83.8124ZM143.92 78.3626C146.865 78.3626 149.531 79.588 151.46 81.5684C153.39 83.5488 154.584 86.2859 154.584 89.3062C154.584 92.3281 153.39 95.0635 151.46 97.044C149.531 99.0244 146.865 100.25 143.92 100.25C140.975 100.25 138.31 99.0244 136.38 97.044C134.45 95.0635 133.256 92.3264 133.256 89.3062C133.256 86.2843 134.45 83.5488 136.38 81.5684C138.31 79.588 140.977 78.3626 143.92 78.3626ZM149.274 83.8124C147.904 82.4065 146.01 81.5375 143.92 81.5375C141.829 81.5375 139.937 82.4065 138.567 83.8124C137.197 85.2184 136.35 87.1598 136.35 89.3062C136.35 91.4526 137.198 93.3939 138.567 94.7999C139.937 96.2059 141.83 97.0749 143.92 97.0749C146.01 97.0749 147.904 96.2059 149.274 94.7999C150.644 93.3939 151.491 91.4526 151.491 89.3062C151.491 87.1614 150.644 85.2184 149.274 83.8124ZM29.5691 81.5375C27.866 81.5375 26.3167 82.2535 25.1939 83.4056C24.0696 84.5594 23.3719 86.1476 23.3719 87.8953V99.6867H20.2781V87.8953C20.2781 85.2721 21.3231 82.8881 23.0056 81.1616C24.6881 79.435 27.0112 78.3626 29.5675 78.3626L29.5691 81.5375ZM58.9089 72.4214V99.6883H55.8151V72.4214H58.9089ZM102.276 99.6883V87.8969C102.276 86.1492 101.579 84.5594 100.456 83.4072C99.3316 82.2551 97.7839 81.5391 96.0808 81.5391C94.3777 81.5391 92.83 82.2551 91.7057 83.4072C90.5814 84.561 89.8852 86.1492 89.8852 87.8969V99.6883H86.7914V87.8969C86.7914 85.2737 87.8364 82.8898 89.5189 81.1632C91.2014 79.4366 93.5246 78.3643 96.0808 78.3643C98.6371 78.3643 100.96 79.4366 102.643 81.1632C104.325 82.8898 105.37 85.2737 105.37 87.8969V99.6883H102.276ZM49.2849 87.7196C48.9804 86.2111 48.2478 84.862 47.2266 83.8141C45.8565 82.4081 43.9646 81.5391 41.873 81.5391C39.7814 81.5391 37.8896 82.4081 36.5195 83.8141C35.4967 84.8637 34.7656 86.2111 34.4612 87.7196H49.2849Z" fill="#1E1E1E"/>
<path d="M41.873 78.3626C44.8178 78.3626 47.4835 79.588 49.4133 81.5684C51.3432 83.5488 52.5373 86.2859 52.5373 89.3062C52.5373 89.8448 52.4992 90.3753 52.4263 90.8944C46.4384 90.8944 40.449 90.8944 34.4612 90.8944C34.7656 92.4029 35.4983 93.7519 36.5195 94.7999C37.8896 96.2059 39.7814 97.0749 41.873 97.0749C43.9646 97.0749 45.8565 96.2059 47.2266 94.7999C47.5849 94.4321 47.9069 94.0286 48.1875 93.5941L50.6661 95.4997C50.295 96.0546 49.8748 96.572 49.4133 97.0456C47.4835 99.026 44.8162 100.251 41.873 100.251C38.9283 100.251 36.2626 99.026 34.3327 97.0456C32.4028 95.0652 31.2088 92.3281 31.2088 89.3078C31.2088 86.2859 32.4028 83.5504 34.3327 81.57C36.2626 79.5896 38.9298 78.3626 41.873 78.3626ZM72.8525 78.3626C75.7973 78.3626 78.463 79.588 80.3928 81.5684C82.3227 83.5488 83.5168 86.2859 83.5168 89.3062C83.5168 89.8448 83.4787 90.3753 83.4058 90.8944C77.4179 90.8944 71.4285 90.8944 65.4407 90.8944C65.7451 92.4029 66.4778 93.7519 67.499 94.7999C68.8691 96.2059 70.7625 97.0749 72.8525 97.0749C74.9442 97.0749 76.836 96.2059 78.2061 94.7999C78.5645 94.4321 78.8864 94.0286 79.1686 93.5941L81.6472 95.4997C81.2761 96.0546 80.8559 96.572 80.3944 97.0456C78.4646 99.026 75.7973 100.251 72.8541 100.251C69.9109 100.251 67.2437 99.026 65.3138 97.0456C63.3839 95.0652 62.1898 92.3281 62.1898 89.3078C62.1898 86.2859 63.3839 83.5504 65.3138 81.57C67.2437 79.5896 69.9094 78.3626 72.8525 78.3626ZM80.2644 87.7196C79.9599 86.2111 79.2273 84.862 78.2061 83.8141C76.836 82.4081 74.9442 81.5391 72.8525 81.5391C70.7625 81.5391 68.8691 82.4081 67.499 83.8141C66.4762 84.8637 65.7451 86.2111 65.4407 87.7196H80.2644ZM119.312 78.3626C122.257 78.3626 124.923 79.588 126.853 81.5684C128.782 83.5488 129.977 86.2859 129.977 89.3062V98.572C129.977 101.594 128.782 104.329 126.853 106.31C124.923 108.29 122.255 109.516 119.312 109.516C116.368 109.516 113.702 108.29 111.772 106.31C111.311 105.836 110.89 105.317 110.519 104.762L112.998 102.857C113.278 103.291 113.602 103.696 113.959 104.064C115.329 105.47 117.221 106.339 119.312 106.339C121.402 106.339 123.296 105.47 124.666 104.064C126.036 102.658 126.883 100.717 126.883 98.5704V97.0114L126.853 97.0423C124.923 99.0227 122.255 100.248 119.312 100.248C116.368 100.248 113.702 99.0227 111.772 97.0423C109.842 95.0619 108.648 92.3248 108.648 89.3045C108.648 86.2827 109.842 83.5472 111.772 81.5668C113.702 79.5864 116.369 78.3626 119.312 78.3626ZM124.666 83.8124C123.296 82.4065 121.404 81.5375 119.312 81.5375C117.222 81.5375 115.329 82.4065 113.959 83.8124C112.589 85.2184 111.742 87.1598 111.742 89.3062C111.742 91.4526 112.589 93.3939 113.959 94.7999C115.329 96.2059 117.222 97.0749 119.312 97.0749C121.404 97.0749 123.296 96.2059 124.666 94.7999C126.036 93.3939 126.883 91.4526 126.883 89.3062C126.883 87.1614 126.036 85.2184 124.666 83.8124ZM143.92 78.3626C146.865 78.3626 149.531 79.588 151.46 81.5684C153.39 83.5488 154.584 86.2859 154.584 89.3062C154.584 92.3281 153.39 95.0635 151.46 97.044C149.531 99.0244 146.865 100.25 143.92 100.25C140.975 100.25 138.31 99.0244 136.38 97.044C134.45 95.0635 133.256 92.3264 133.256 89.3062C133.256 86.2843 134.45 83.5488 136.38 81.5684C138.31 79.588 140.977 78.3626 143.92 78.3626ZM149.274 83.8124C147.904 82.4065 146.01 81.5375 143.92 81.5375C141.829 81.5375 139.937 82.4065 138.567 83.8124C137.197 85.2184 136.35 87.1598 136.35 89.3062C136.35 91.4526 137.198 93.3939 138.567 94.7999C139.937 96.2059 141.83 97.0749 143.92 97.0749C146.01 97.0749 147.904 96.2059 149.274 94.7999C150.644 93.3939 151.491 91.4526 151.491 89.3062C151.491 87.1614 150.644 85.2184 149.274 83.8124ZM29.5691 81.5375C27.866 81.5375 26.3167 82.2535 25.1939 83.4056C24.0696 84.5594 23.3719 86.1476 23.3719 87.8953V99.6867H20.2781V87.8953C20.2781 85.2721 21.3231 82.8881 23.0056 81.1616C24.6881 79.435 27.0112 78.3626 29.5675 78.3626L29.5691 81.5375ZM58.9089 72.4214V99.6883H55.8151V72.4214H58.9089ZM102.276 99.6883V87.8969C102.276 86.1492 101.579 84.5594 100.456 83.4072C99.3316 82.2551 97.7839 81.5391 96.0808 81.5391C94.3777 81.5391 92.83 82.2551 91.7057 83.4072C90.5814 84.561 89.8852 86.1492 89.8852 87.8969V99.6883H86.7914V87.8969C86.7914 85.2737 87.8364 82.8898 89.5189 81.1632C91.2014 79.4366 93.5246 78.3643 96.0808 78.3643C98.6371 78.3643 100.96 79.4366 102.643 81.1632C104.325 82.8898 105.37 85.2737 105.37 87.8969V99.6883H102.276ZM49.2849 87.7196C48.9804 86.2111 48.2478 84.862 47.2266 83.8141C45.8565 82.4081 43.9646 81.5391 41.873 81.5391C39.7814 81.5391 37.8896 82.4081 36.5195 83.8141C35.4967 84.8637 34.7656 86.2111 34.4612 87.7196H49.2849Z" stroke="#1E1E1E" stroke-width="0.693936" mask="url(#path-3-outside-1_640_5476)"/>
</g>
<defs>
<clipPath id="clip0_640_5476">
<rect width="173.811" height="173.811" rx="37.6591" fill="white"/>
</clipPath>
</defs>
</svg>
