<svg width="467" height="126" viewBox="0 0 467 126" fill="none" xmlns="http://www.w3.org/2000/svg">
<path d="M75.0754 20.0906C85.3109 20.0906 94.5816 24.2353 101.298 30.9291C108.005 37.6229 112.158 46.8842 112.158 57.0991C112.158 58.9239 112.03 60.7119 111.772 62.4633C90.9523 62.4633 70.1231 62.4633 49.303 62.4633C50.3688 67.5616 52.9047 72.1281 56.4604 75.6767C61.2198 80.4266 67.8077 83.37 75.0754 83.37C82.3431 83.37 88.9309 80.4266 93.6903 75.6767C94.9399 74.4296 96.0609 73.0634 97.0348 71.5963L105.653 78.0425C104.358 79.9223 102.906 81.6645 101.298 83.2691C94.5908 89.963 85.32 94.1076 75.0754 94.1076C64.8399 94.1076 55.5692 89.963 48.8528 83.2691C42.1455 76.5753 37.9925 67.3232 37.9925 57.0991C37.9925 46.8842 42.1455 37.632 48.8528 30.9291C55.56 24.2353 64.8307 20.0906 75.0754 20.0906ZM182.796 20.0906C193.031 20.0906 202.302 24.2353 209.019 30.9291C215.726 37.6229 219.879 46.8842 219.879 57.0991C219.879 58.9239 219.75 60.7119 219.493 62.4633C198.673 62.4633 177.853 62.4633 157.023 62.4633C158.08 67.5616 160.625 72.1281 164.181 75.6767C168.94 80.4266 175.528 83.37 182.796 83.37C190.064 83.37 196.651 80.4266 201.411 75.6767C202.66 74.4296 203.781 73.0634 204.755 71.5963L213.374 78.0425C212.078 79.9223 210.626 81.6645 209.019 83.2691C202.311 89.963 193.041 94.1076 182.796 94.1076C172.56 94.1076 163.29 89.963 156.573 83.2691C149.866 76.5753 145.713 67.3232 145.713 57.0991C145.713 46.8842 149.866 37.632 156.573 30.9291C163.28 24.2353 172.551 20.0906 182.796 20.0906ZM208.568 51.7257C207.502 46.6274 204.967 42.061 201.411 38.5215C196.651 33.7717 190.064 30.8282 182.796 30.8282C175.528 30.8282 168.94 33.7717 164.181 38.5215C160.625 42.0701 158.08 46.6274 157.023 51.7257H208.568ZM344.349 20.0906C354.584 20.0906 363.855 24.2353 370.572 30.9291C377.279 37.6229 381.432 46.8842 381.432 57.0991V88.4316C381.432 98.6466 377.279 107.899 370.572 114.602C363.864 121.295 354.594 125.44 344.349 125.44C334.114 125.44 324.843 121.295 318.126 114.602C316.518 112.997 315.058 111.246 313.771 109.375L322.39 102.929C323.364 104.396 324.484 105.762 325.734 107.009C330.493 111.759 337.081 114.703 344.349 114.703C351.617 114.703 358.205 111.759 362.964 107.009C367.723 102.259 370.673 95.6848 370.673 88.4316V83.1591L370.572 83.26C363.864 89.9538 354.594 94.0984 344.349 94.0984C334.114 94.0984 324.843 89.9538 318.126 83.26C311.419 76.5662 307.266 67.314 307.266 57.0899C307.266 46.875 311.419 37.6229 318.126 30.9199C324.834 24.2261 334.104 20.0814 344.349 20.0814V20.0906ZM362.964 38.5215C358.205 33.7717 351.617 30.8282 344.349 30.8282C337.081 30.8282 330.493 33.7717 325.734 38.5215C320.975 43.2714 318.025 49.846 318.025 57.0991C318.025 64.3523 320.975 70.9269 325.734 75.6767C330.493 80.4266 337.081 83.37 344.349 83.37C351.617 83.37 358.205 80.4266 362.964 75.6767C367.723 70.9269 370.673 64.3523 370.673 57.0991C370.673 49.846 367.723 43.2714 362.964 38.5215ZM429.917 20.0906C440.153 20.0906 449.423 24.2353 456.14 30.9291C462.847 37.6229 467 46.8842 467 57.0991C467 67.314 462.847 76.5662 456.14 83.2691C449.432 89.963 440.162 94.1076 429.917 94.1076C419.682 94.1076 410.411 89.963 403.694 83.2691C396.987 76.5753 392.834 67.3232 392.834 57.0991C392.834 46.8842 396.987 37.632 403.694 30.9291C410.402 24.2353 419.672 20.0906 429.917 20.0906ZM448.532 38.5215C443.773 33.7717 437.185 30.8282 429.917 30.8282C422.649 30.8282 416.062 33.7717 411.302 38.5215C406.543 43.2714 403.593 49.846 403.593 57.0991C403.593 64.3523 406.543 70.9269 411.302 75.6767C416.062 80.4266 422.649 83.37 429.917 83.37C437.185 83.37 443.773 80.4266 448.532 75.6767C453.292 70.9269 456.241 64.3523 456.241 57.0991C456.241 49.846 453.292 43.2714 448.532 38.5215ZM32.3051 30.8282C26.388 30.8282 20.9946 33.249 17.0897 37.1461C13.1848 41.0431 10.7592 46.4165 10.7592 52.3309V92.2095H0V52.3309C0 43.4639 3.62927 35.4038 9.48205 29.5536C15.3348 23.7126 23.4111 20.0906 32.3051 20.0906V30.8282ZM134.32 0V92.2095H123.561V0H134.32ZM285.114 92.2095V52.3309C285.114 46.4257 282.688 41.0431 278.783 37.1461C274.878 33.249 269.494 30.8282 263.568 30.8282C257.651 30.8282 252.267 33.249 248.352 37.1461C244.448 41.0431 242.022 46.4165 242.022 52.3309V92.2095H231.263V52.3309C231.263 43.4639 234.892 35.4038 240.745 29.5536C246.598 23.7126 254.674 20.0906 263.559 20.0906C272.443 20.0906 280.52 23.7126 286.382 29.5536C292.234 35.3947 295.864 43.4547 295.864 52.3309V92.2095H285.105H285.114ZM100.857 51.7349C99.8004 46.6366 97.2553 42.0701 93.6995 38.5307C88.9401 33.7808 82.3523 30.8374 75.0846 30.8374C67.8168 30.8374 61.229 33.7808 56.4696 38.5307C52.9139 42.0793 50.3688 46.6366 49.3122 51.7349H100.857Z" fill="black"/>
</svg>
